<?xml version="1.0" encoding="utf-8"?>
<!-- Generator: Adobe Illustrator 26.1.0, SVG Export Plug-In . SVG Version: 6.00 Build 0)  -->
<svg version="1.1" id="Layer_1" xmlns="http://www.w3.org/2000/svg" xmlns:xlink="http://www.w3.org/1999/xlink" x="0px" y="0px"
	 viewBox="0 0 500.04 232.2" enable-background="new 0 0 500.04 232.2" xml:space="preserve">
<g>
	<path fill="#FEFEFF" d="M264.459,105.898c-0.598-1.177-1.641-1.768-3.129-1.768c-1.492,0-2.888,0.228-4.191,0.68
		c-1.304,0.455-2.849,1.088-4.637,1.904c-2.905,1.451-5.251,2.811-7.04,4.08c-6.704,4.352-12.961,9.452-18.772,15.3
		c-5.81,5.849-8.866,10.224-9.163,13.124c-0.15,2.268,0.856,4.127,3.017,5.576c1.861,1.36,4.022,2.652,6.481,3.876
		c2.458,1.225,4.246,2.155,5.363,2.788c5.959,3.628,8.939,8.433,8.939,14.417c0,2.631-0.634,5.168-1.899,7.616
		c-2.011,3.808-5.047,6.959-9.106,9.452c-4.061,2.492-8.4,4.237-13.018,5.236c-4.768,0.996-8.716,1.496-11.844,1.496
		c-5.662,0-11.324-1.475-16.984-4.42c-5.662-2.946-9.163-7.549-10.503-13.805c2.755,2.992,6.554,5.123,11.397,6.392
		c4.841,1.271,9.459,1.904,13.855,1.904c6.554-0.089,11.415-0.725,14.582-1.904c3.165-1.177,5.922-2.561,8.269-4.147
		c2.346-1.586,4.506-3.445,6.48-5.576c1.973-2.13,2.961-4.488,2.961-7.072s-1.416-4.918-4.246-7.004
		c-0.224-0.181-2.478-1.313-6.76-3.4c-4.285-2.085-7.562-4.396-9.833-6.937c-2.273-2.537-3.408-5.44-3.408-8.704
		c0-6.165,3.129-12.444,9.386-18.837c6.257-6.392,13.091-11.356,20.504-14.892c7.412-3.536,13.725-5.304,18.939-5.304
		c3.65,0,6.482,0.795,8.492,2.38c2.012,1.587,3.018,3.787,3.018,6.596c0,0.363,0,0.771,0,1.224
		c-0.223,2.812-4.285,8.66-12.18,17.545c-2.905,3.264-5.458,6.915-7.654,10.948c-2.198,4.035-3.296,7.595-3.296,10.676
		c0,0.272,0,0.544,0,0.816c-2.31-2.176-3.464-5.077-3.464-8.704c0-3.265,1.154-7.253,3.464-11.969
		C251.831,118.594,257.156,112.065,264.459,105.898z"/>
	<path fill="#FEFEFF" d="M287.364,152.82c0,6.348-2.533,13.057-7.599,20.129c-3.799,5.439-7.896,9.384-12.291,11.832
		c-2.458,1.449-4.508,2.176-6.146,2.176c-1.639,0-2.98-0.454-4.022-1.359c-1.788-1.449-2.682-3.581-2.682-6.393
		c0-2.81,0.632-6.028,1.899-9.656c-16.462,28.65-24.694,45.786-24.694,51.409c0,0.544,0.094,1.021,0.279,1.429
		c0.187,0.407,0.131,0.656-0.168,0.748l-0.335-0.137c-2.383-2.539-3.576-5.531-3.576-8.976c0-7.889,6.631-23.983,19.89-48.281
		c-3.576,4.352-5.364,5.895-5.364,4.624c0-0.725,0.41-1.541,1.229-2.448c3.649-3.809,7.599-9.021,11.844-15.641
		c4.246-6.617,6.984-10.676,8.213-12.172c1.229-1.496,2.737-2.244,4.525-2.244c1.787,0,3.575,1.135,5.363,3.399
		c-1.491,2.177-4.285,6.664-8.381,13.465c3.576-4.08,7.188-6.937,10.839-8.568c1.788-0.816,3.389-1.224,4.805-1.224
		c1.414,0,2.83,0.567,4.246,1.699C286.655,147.766,287.364,149.828,287.364,152.82z M256.3,178.117c0,4.08,1.303,6.12,3.911,6.12
		c1.489,0,3.743-0.905,6.76-2.72c3.018-1.813,5.959-4.781,8.827-8.908c2.867-4.125,4.897-7.842,6.09-11.152
		c1.191-3.309,1.788-6.006,1.788-8.093c0-3.717-1.192-5.576-3.575-5.576c-1.564,0-3.986,0.952-7.264,2.856
		c-3.278,1.904-6.332,4.896-9.162,8.977C258.759,166.511,256.3,172.676,256.3,178.117z"/>
	<path fill="#FEFEFF" d="M312.617,163.02c3.947-2.629,5.922-5.304,5.922-8.024c0-2.72-1.341-4.08-4.022-4.08
		c-1.268,0-2.608,0.408-4.022,1.225c-3.129,1.724-6.146,4.715-9.051,8.976c-3.575,5.26-5.363,10.156-5.363,14.688
		c0,1.724,0.392,3.332,1.174,4.828c0.781,1.496,2.179,2.244,4.189,2.244c3.501,0,7.934-2.244,13.297-6.731
		c5.363-4.488,9.981-8.998,13.855-13.533c0.895-1.088,1.341-1.132,1.341-0.136c0,0.636-0.224,1.18-0.67,1.632
		c-2.757,3.084-4.601,5.147-5.531,6.188c-0.933,1.043-2.776,2.903-5.531,5.576c-2.757,2.676-4.991,4.556-6.704,5.645
		c-5.29,3.353-9.777,5.032-13.465,5.032c-3.687,0-6.592-1.021-8.715-3.061s-3.185-4.873-3.185-8.5c0-7.706,2.83-14.349,8.492-19.925
		c5.66-5.576,11.582-8.364,17.766-8.364c4.171,0,6.965,1.088,8.381,3.264c0.596,1.089,0.894,2.244,0.894,3.469
		c0,1.224-0.335,2.562-1.006,4.012c-1.341,2.812-3.854,5.283-7.542,7.412c-3.688,2.132-7.17,3.196-10.447,3.196
		c-1.268,0-1.955-0.136-2.067-0.408c-0.111-0.271-0.02-0.476,0.279-0.611c0.297-0.137,0.707-0.204,1.229-0.204
		C305.092,166.829,308.594,165.56,312.617,163.02z"/>
	<path fill="#FEFEFF" d="M357.2,152.004c0-1.722-0.745-2.585-2.234-2.585c-1.268,0-3.224,0.704-5.866,2.108
		c-2.646,1.407-5.606,4.42-8.884,9.044c-3.949,5.713-5.922,10.791-5.922,15.232c0,3.355,1.042,5.623,3.129,6.801
		c0.67,0.363,1.452,0.544,2.347,0.544c3.054,0,6.648-1.585,10.782-4.761c4.135-3.172,9.479-8.432,16.034-15.776
		c1.043-1.269,1.564-1.269,1.564,0c0,0.544-0.224,1.044-0.67,1.496c-9.09,10.156-15.774,16.436-20.058,18.837
		c-4.284,2.401-7.653,3.604-10.112,3.604c-8.642,0-12.961-3.854-12.961-11.561c0-7.706,2.849-14.349,8.548-19.925
		c5.698-5.576,11.638-8.364,17.822-8.364c3.872,0,6.48,1.088,7.821,3.264c0.819,1.089,1.229,2.244,1.229,3.469
		c0,1.224-0.262,2.495-0.782,3.808c-0.522,1.315-1.36,1.973-2.515,1.973c-1.155,0-1.323-0.885-0.502-2.652
		C356.79,154.792,357.2,153.275,357.2,152.004z"/>
	<path fill="#FEFEFF" d="M384.129,149.963c-3.056,3.809-5.606,8.637-7.654,14.485c-2.05,5.848-3.073,9.951-3.073,12.308
		c0,2.359,0.764,3.536,2.291,3.536c1.526,0,4.06-1.359,7.599-4.08c3.537-2.72,7.578-6.572,12.123-11.561
		c0.968-1.088,1.453-0.951,1.453,0.408c0,0.183-0.075,0.363-0.224,0.544c-3.576,3.809-6.593,6.937-9.051,9.385
		s-5.383,4.783-8.771,7.004c-3.391,2.223-6.165,3.332-8.324,3.332c-2.683,0-4.676-0.727-5.979-2.176
		c-1.304-1.449-1.955-3.037-1.955-4.761c0-3.264,0.483-5.848,1.452-7.752c0.968-1.904,2.606-4.532,4.917-7.888
		c-0.821,0.815-2.105,2.176-3.855,4.08c-1.751,1.903-2.961,3.175-3.631,3.808c-0.671,0.636-1.006,0.455-1.006-0.544
		c0-0.633,0.597-1.541,1.787-2.72c1.191-1.178,3.78-4.17,7.767-8.977c3.983-4.805,6.704-7.661,8.156-8.568
		c1.453-0.905,2.644-1.359,3.576-1.359c0.931,0,1.62,0.159,2.066,0.476C384.241,149.262,384.353,149.603,384.129,149.963z
		 M385.582,142.755c-0.82-0.815-1.155-1.993-1.006-3.536c0.148-1.54,0.819-3.173,2.012-4.896c1.19-1.722,2.793-2.584,4.805-2.584
		c0.596,0,1.229,0.34,1.899,1.02c0.671,0.68,0.931,1.814,0.782,3.4c-0.15,1.587-0.745,3.083-1.788,4.488
		c-1.044,1.406-2.217,2.312-3.52,2.72C387.462,143.776,386.401,143.572,385.582,142.755z"/>
	<path fill="#FEFEFF" d="M434.411,163.292c-0.82,1.179-1.658,2.448-2.514,3.808c-0.857,1.36-1.938,3.22-3.24,5.576
		c-1.305,2.359-1.955,4.353-1.955,5.984s0.575,2.448,1.731,2.448c1.154,0,3.034-0.86,5.643-2.584
		c5.214-3.626,10.987-9.065,17.319-16.32c0.744-0.905,1.229-1.042,1.453-0.408c0,0.091,0,0.271,0,0.544
		c0,0.271-0.15,0.591-0.447,0.952c-12.813,14.688-22.124,22.032-27.935,22.032c-1.715,0-3.147-0.703-4.302-2.108
		c-1.156-1.404-1.732-3.06-1.732-4.964s0.671-4.805,2.012-8.704c-3.353,5.079-6.947,9-10.783,11.765
		c-3.837,2.767-6.835,4.147-8.994,4.147c-2.162,0-4.006-0.794-5.531-2.38c-1.527-1.585-2.291-3.558-2.291-5.916
		c0-6.709,2.459-13.281,7.375-19.721c3.724-4.805,8.342-8.205,13.855-10.2c2.458-0.996,4.86-1.496,7.207-1.496
		s4.618,0.795,6.816,2.38c2.196,1.588,3.593,3.469,4.19,5.645c2.234,0,3.835,0.999,4.805,2.992c0.148,0.271,0.223,0.727,0.223,1.36
		c0,0.635-0.279,1.359-0.838,2.176C435.919,161.116,435.23,162.115,434.411,163.292z M426.254,149.828
		c-1.564,0-3.428,0.591-5.587,1.769c-3.799,1.995-7.413,5.439-10.839,10.336c-5.438,7.799-8.157,13.511-8.157,17.137
		c0,1.904,0.633,2.855,1.9,2.855c1.042,0,2.773-0.815,5.195-2.447c2.42-1.633,5.604-4.85,9.554-9.656
		c0.224-0.272,1.079-1.27,2.57-2.992c1.489-1.722,2.755-3.218,3.799-4.488c3.501-4.441,5.252-7.638,5.252-9.589
		C429.942,150.803,428.712,149.828,426.254,149.828z"/>
	<path fill="#FEFEFF" d="M455.641,178.661c0,2.448,1.006,3.672,3.017,3.672c1.191,0,3.073-0.589,5.643-1.768
		c2.57-1.178,5.903-3.762,10.001-7.752c4.096-3.989,6.853-6.869,8.269-8.637c1.414-1.768,2.271-2.629,2.57-2.584
		c0.297,0.047,0.408,0.318,0.335,0.816c-0.075,0.499-0.262,0.931-0.559,1.292c-6.332,7.888-11.584,13.556-15.755,17
		c-4.173,3.447-8.046,5.168-11.621,5.168c-3.056,0-5.179-0.862-6.369-2.584c-1.192-1.721-1.788-3.717-1.788-5.984
		c0-4.08,1.191-8.976,3.576-14.688c-4.321,5.623-6.481,7.436-6.481,5.44c0-0.361,0.224-0.77,0.671-1.224
		c3.501-3.445,7.263-8.433,11.285-14.961c7.375-11.696,13.147-21.985,17.319-30.873c0.744-1.721,1.118-2.991,1.118-3.808
		c0-1.904-0.857-2.266-2.57-1.088c-1.938,1.18-2.98,1.632-3.129,1.359c-0.15-0.271-0.038-0.633,0.336-1.088
		c1.787-1.632,4.245-3.173,7.374-4.624c3.129-1.449,5.699-2.221,7.71-2.312c3.129,0,4.693,1.18,4.693,3.537
		c0,1.359-0.541,3.175-1.62,5.439c-1.081,2.268-4.173,6.779-9.274,13.533c-5.104,6.755-8.213,10.994-9.33,12.716
		c-7.674,12.24-12.554,21.988-14.638,29.241C455.901,175.804,455.641,177.392,455.641,178.661z"/>
</g>
<g>
	<path fill="#FEFEFF" d="M61.342,58.067l9.627,2.432c-2.019,7.907-5.649,13.937-10.893,18.088
		c-5.244,4.152-11.654,6.228-19.229,6.228c-7.841,0-14.218-1.596-19.131-4.789c-4.913-3.192-8.652-7.816-11.215-13.87
		c-2.564-6.054-3.846-12.555-3.846-19.503c0-7.576,1.447-14.184,4.342-19.825c2.895-5.64,7.014-9.925,12.357-12.853
		c5.342-2.928,11.223-4.392,17.642-4.392c7.278,0,13.398,1.854,18.361,5.558c4.962,3.706,8.419,8.917,10.372,15.632l-9.479,2.233
		c-1.687-5.293-4.136-9.147-7.345-11.562s-7.245-3.623-12.108-3.623c-5.591,0-10.265,1.34-14.019,4.02
		c-3.755,2.68-6.394,6.277-7.916,10.793c-1.522,4.516-2.283,9.173-2.283,13.969c0,6.187,0.901,11.588,2.705,16.203
		c1.803,4.615,4.607,8.064,8.412,10.347c3.804,2.283,7.923,3.424,12.357,3.424c5.392,0,9.958-1.555,13.696-4.665
		C57.488,68.803,60.019,64.187,61.342,58.067z"/>
	<path fill="#FEFEFF" d="M86.77,83.574V10.823h8.933v26.103c4.169-4.83,9.429-7.245,15.781-7.245c3.903,0,7.295,0.769,10.173,2.308
		c2.878,1.538,4.938,3.665,6.179,6.376c1.241,2.713,1.861,6.65,1.861,11.811v33.398h-8.933V50.176c0-4.466-0.968-7.717-2.903-9.751
		c-1.935-2.035-4.673-3.052-8.213-3.052c-2.647,0-5.136,0.687-7.469,2.059c-2.332,1.374-3.995,3.234-4.987,5.583
		c-0.992,2.35-1.489,5.591-1.489,9.727v28.833H86.77z"/>
	<path fill="#FEFEFF" d="M184.454,66.603l9.23,1.141c-1.456,5.393-4.152,9.578-8.089,12.555c-3.938,2.978-8.966,4.466-15.086,4.466
		c-7.709,0-13.821-2.374-18.337-7.121c-4.516-4.747-6.774-11.405-6.774-19.974c0-8.866,2.283-15.748,6.849-20.645
		c4.565-4.896,10.487-7.344,17.766-7.344c7.047,0,12.804,2.399,17.27,7.195c4.466,4.797,6.699,11.547,6.699,20.248
		c0,0.529-0.017,1.323-0.049,2.382h-39.304c0.331,5.79,1.968,10.223,4.913,13.3c2.944,3.077,6.616,4.615,11.017,4.615
		c3.275,0,6.071-0.86,8.387-2.581C181.26,73.12,183.097,70.374,184.454,66.603z M155.125,52.161h29.428
		c-0.397-4.433-1.522-7.758-3.375-9.975c-2.846-3.44-6.534-5.161-11.066-5.161c-4.103,0-7.552,1.374-10.347,4.119
		C156.969,43.891,155.422,47.563,155.125,52.161z"/>
	<path fill="#FEFEFF" d="M212.115,83.574V37.819h-7.891v-6.947h7.891v-5.608c0-3.54,0.314-6.17,0.943-7.89
		c0.86-2.315,2.374-4.193,4.541-5.633c2.167-1.439,5.202-2.159,9.106-2.159c2.514,0,5.293,0.298,8.337,0.894l-1.34,7.791
		c-1.853-0.33-3.606-0.496-5.26-0.496c-2.713,0-4.632,0.579-5.757,1.737c-1.125,1.158-1.687,3.325-1.687,6.501v4.863h10.272v6.947
		h-10.272v45.755H212.115z"/>
	<path fill="#FEFEFF" d="M244.589,20.451V10.079h9.578v8.188c0,4.434-0.514,7.626-1.539,9.578c-1.423,2.68-3.64,4.698-6.65,6.054
		l-2.184-3.523c1.787-0.727,3.118-1.877,3.995-3.449c0.876-1.571,1.365-3.729,1.464-6.476H244.589z"/>
	<path fill="#FEFEFF" d="M267.387,67.843l8.834-1.389c0.496,3.541,1.877,6.252,4.144,8.138c2.266,1.886,5.434,2.829,9.503,2.829
		c4.103,0,7.146-0.835,9.132-2.506c1.984-1.67,2.978-3.63,2.978-5.88c0-2.018-0.878-3.606-2.631-4.764
		c-1.224-0.794-4.268-1.803-9.131-3.027c-6.551-1.654-11.091-3.084-13.622-4.292c-2.531-1.208-4.45-2.878-5.757-5.012
		c-1.308-2.134-1.96-4.491-1.96-7.072c0-2.349,0.537-4.523,1.612-6.525c1.075-2.001,2.539-3.664,4.393-4.988
		c1.39-1.025,3.283-1.893,5.682-2.605c2.398-0.711,4.971-1.067,7.717-1.067c4.136,0,7.767,0.595,10.893,1.786
		c3.127,1.191,5.435,2.804,6.923,4.839c1.489,2.035,2.514,4.756,3.077,8.163l-8.734,1.191c-0.396-2.712-1.547-4.83-3.449-6.352
		c-1.902-1.521-4.59-2.283-8.063-2.283c-4.103,0-7.03,0.679-8.784,2.035c-1.754,1.357-2.63,2.945-2.63,4.764
		c0,1.158,0.363,2.201,1.092,3.126c0.728,0.96,1.869,1.754,3.424,2.382c0.894,0.331,3.523,1.092,7.891,2.283
		c6.318,1.688,10.727,3.069,13.226,4.144c2.497,1.075,4.457,2.639,5.88,4.689c1.423,2.052,2.135,4.599,2.135,7.643
		c0,2.977-0.869,5.781-2.605,8.411c-1.737,2.63-4.243,4.665-7.519,6.104c-3.275,1.439-6.98,2.159-11.116,2.159
		c-6.849,0-12.067-1.422-15.656-4.268C270.67,77.652,268.38,73.435,267.387,67.843z"/>
</g>
</svg>
